<svg width="482" height="100" viewBox="0 0 482 100" fill="none" xmlns="http://www.w3.org/2000/svg">
<g clip-path="url(#clip0_4713_139)">
<g clip-path="url(#clip1_4713_139)">
<path fill-rule="evenodd" clip-rule="evenodd" d="M85.6357 14.9273C76.5663 5.71312 63.9503 0 50 0C22.3858 0 0 22.3858 0 50C0 77.6142 22.3858 100 50 100C63.3745 100 75.5225 94.7488 84.4947 86.1957C77.4679 76.3696 73.3327 64.3342 73.3327 51.333C73.3327 37.643 77.9176 25.0238 85.6357 14.9273Z" fill="black"/>
<g clip-path="url(#clip2_4713_139)">
<rect x="92.6367" y="79" width="100" height="20" transform="rotate(-45.0706 92.6367 79)" fill="#1D1B1B"/>
<rect x="163.637" y="93" width="100" height="20" transform="rotate(-135.071 163.637 93)" fill="#1D1B1B"/>
<rect x="85.6367" y="40" width="100" height="20" fill="#1D1B1B"/>
<rect x="125.637" y="100" width="100" height="20" transform="rotate(-90 125.637 100)" fill="#1D1B1B"/>
</g>
</g>
<g clip-path="url(#clip3_4713_139)">
<g clip-path="url(#clip4_4713_139)">
<path d="M209.596 98.3591H191V2.64088H223.144L234.832 48.0386C237.887 59.7984 240.278 70.1904 241.739 78.3949H242.005C243.599 70.1904 246.521 57.4738 248.912 48.3121L260.601 2.64088H292.346V98.3591H273.75V43.3895C273.75 39.6975 274.016 25.8868 274.282 17.2721H273.883C271.094 28.6215 267.773 41.3384 266.445 46.1243L252.631 98.3591H230.582L216.768 45.5773C215.573 40.9281 211.986 26.8439 209.463 17.2721H209.064C209.197 25.8868 209.596 40.2445 209.596 43.9364V98.3591ZM333.305 49.2693C343.4 52.9613 349.643 60.2085 349.643 71.6946C349.643 94.9406 331.313 98.3591 310.459 98.3591H273.533V2.64088H308.599C326.664 2.64088 346.056 6.05939 346.056 28.4848C346.056 38.6036 341.142 45.4406 333.305 49.2693ZM307.67 18.7762H293.59V41.4751H307.537C318.428 41.4751 326.398 41.2017 326.398 30.1257C326.398 19.4599 318.428 18.7762 307.67 18.7762ZM293.59 82.2239H309.529C322.148 82.2239 329.984 81.5401 329.984 70.1903C329.984 58.0207 320.155 57.6105 310.193 57.6105H293.59V82.2239ZM378.845 100C357.459 100 339.395 89.7446 338.731 66.6353L359.186 64.3107C359.186 77.7111 367.422 84.1381 379.376 84.1381C389.736 84.1381 397.706 80.583 397.706 71.0108C397.706 61.7127 388.275 61.3025 374.196 58.1574C355.6 54.0552 341.255 47.355 341.255 29.0317C341.255 9.47791 359.585 1 377.516 1C397.706 1 412.981 9.20445 415.239 31.6298L394.916 34.9116C394.385 22.1948 388.142 16.7251 377.384 16.7251C367.82 16.7251 361.577 20.5539 361.577 28.0746C361.577 35.1851 369.016 37.9199 382.298 40.3812C402.488 44.0732 418.161 49.8163 418.161 70.4643C418.161 93.4364 398.237 100 378.845 100ZM452.38 98.3591H432.323V20.0069H402.703V2.64088H482V20.0069H452.38V98.3591Z" fill="black"/>
</g>
</g>
</g>
<defs>
<clipPath id="clip0_4713_139">
<rect width="481.75" height="100" fill="white"/>
</clipPath>
<clipPath id="clip1_4713_139">
<rect width="185.636" height="100" fill="white"/>
</clipPath>
<clipPath id="clip2_4713_139">
<rect x="85.6367" width="100" height="100" rx="50" fill="white"/>
</clipPath>
<clipPath id="clip3_4713_139">
<rect width="293.75" height="100" fill="white" transform="translate(188)"/>
</clipPath>
<clipPath id="clip4_4713_139">
<rect width="293.75" height="100" fill="white" transform="translate(188)"/>
</clipPath>
</defs>
</svg>
